# xmcd
#
# Track frame offsets:
#	150
#	12928
#	25501
#	39749
#	56916
#	71920
#	84075
#	99385
#	114885
#	125881
#	139238
#	151274
#	164591
#	179211
#	202665
#	217644
#
# Disc length: 3003 seconds
#
# Revision: 1
# Processed by: cddbd v1.5.1PL0 Copyright (c) Steve Scherf et al.
# Submitted via: audiograbber 1.83.01
#
DISCID=d70bb910
DTITLE=Bojtorján - Régi dalok
DYEAR=1900
DGENRE=
TTITLE0=Ahol a lusta folyo
TTITLE1=Vigyazz magadra fiam
TTITLE2=Tizenhat eves
TTITLE3=Paratlan oldal
TTITLE4=Csavargodal
TTITLE5=Teremts otthont
TTITLE6=Messze van
TTITLE7=Egy hetig tart
TTITLE8=Énekelsz egy régi nótát
TTITLE9=Az ejfeli gyors
TTITLE10=Budapestõl Miskolcig
TTITLE11=Szerelmem volt
TTITLE12=Úgy szeretném
TTITLE13=Ingadal
TTITLE14=Téli ünnep
TTITLE15=Búcsúzó
EXTD=
EXTT0=
EXTT1=
EXTT2=
EXTT3=
EXTT4=
EXTT5=
EXTT6=
EXTT7=
EXTT8=
EXTT9=
EXTT10=
EXTT11=
EXTT12=
EXTT13=
EXTT14=
EXTT15=
PLAYORDER=
